<?xml version="1.0" encoding="UTF-8"?>
<svg id="Layer_2" data-name="Layer 2" xmlns="http://www.w3.org/2000/svg" xmlns:xlink="http://www.w3.org/1999/xlink" viewBox="0 0 80 80">
  <defs>
    <style>
      .cls-1 {
        clip-path: url(#clippath-4);
      }

      .cls-2 {
        fill: #fff;
      }

      .cls-3 {
        fill: none;
      }

      .cls-4 {
        fill: #c8202f;
      }

      .cls-5 {
        clip-path: url(#clippath-2);
      }

      .cls-6 {
        fill: #b2b2b2;
      }

      .cls-7 {
        clip-path: url(#clippath);
      }
    </style>
    <clipPath id="clippath">
      <path class="cls-3" d="M40,14.9c-12.26,0-22.21,9.94-22.21,22.21s9.94,22.21,22.21,22.21,22.21-9.94,22.21-22.21-9.94-22.21-22.21-22.21M40,48.53c-6.3,0-11.42-5.11-11.42-11.42,0-6.3,5.11-11.42,11.42-11.42s11.42,5.11,11.42,11.42c0,6.3-5.11,11.41-11.41,11.42h0Z"/>
    </clipPath>
    <clipPath id="clippath-2">
      <path class="cls-3" d="M40,14.9c-12.26,0-22.21,9.94-22.21,22.21s9.94,22.21,22.21,22.21,22.21-9.94,22.21-22.21-9.94-22.21-22.21-22.21M40,48.53c-6.3,0-11.42-5.11-11.42-11.42,0-6.3,5.11-11.42,11.42-11.42s11.42,5.11,11.42,11.42c0,6.3-5.11,11.41-11.41,11.42h0Z"/>
    </clipPath>
    <clipPath id="clippath-4">
      <path class="cls-3" d="M40,14.9c-12.26,0-22.21,9.94-22.21,22.21s9.94,22.21,22.21,22.21,22.21-9.94,22.21-22.21-9.94-22.21-22.21-22.21M40,48.53c-6.3,0-11.42-5.11-11.42-11.42,0-6.3,5.11-11.42,11.42-11.42s11.42,5.11,11.42,11.42c0,6.3-5.11,11.41-11.41,11.42h0Z"/>
    </clipPath>
  </defs>
  <g id="Layer_1-2" data-name="Layer 1">
    <g id="forbruk">
      <rect class="cls-2" width="80" height="80" rx="8" ry="8"/>
      <g>
        <path class="cls-4" d="M52.27,37.17h-.93c0,6.26-5.07,11.34-11.34,11.34-6.26,0-11.34-5.07-11.34-11.34,0-6.26,5.07-11.34,11.34-11.34,3.77,0,7.29,1.87,9.4,5,1.26,1.87,1.94,4.08,1.94,6.34h1.87c0-7.29-5.91-13.19-13.2-13.19s-13.19,5.91-13.19,13.2c0,7.29,5.91,13.19,13.2,13.19,4.39,0,8.48-2.18,10.94-5.82,1.48-2.18,2.26-4.75,2.25-7.38h-.93"/>
        <polyline class="cls-6" points="25.46 21.3 24.13 22.62 27.35 25.84 28.67 24.51 25.46 21.3"/>
        <polyline class="cls-6" points="52.66 48.5 51.33 49.82 54.55 53.03 55.87 51.71 52.66 48.5"/>
        <polyline class="cls-6" points="27.35 48.5 24.13 51.71 25.46 53.03 28.67 49.82 27.35 48.5"/>
        <polyline class="cls-6" points="54.55 21.3 51.33 24.51 52.66 25.84 55.87 22.62 54.55 21.3"/>
        <g class="cls-7">
          <path class="cls-6" d="M63.7,36.23h-8.07c.02.31.03.62.03.93h0c0,.31-.01.62-.03.93h8.07v-1.87"/>
        </g>
        <g class="cls-5">
          <path class="cls-6" d="M24.37,36.23h-8.07v1.87h8.07c-.02-.31-.03-.62-.03-.93,0-.31,0-.62.03-.93"/>
        </g>
        <g class="cls-1">
          <path class="cls-6" d="M40.93,13.17h-1.87v8.36c.31-.02.62-.03.93-.03h0c.31,0,.62.01.93.03v-8.36"/>
        </g>
        <rect class="cls-6" x="33.46" y="54.25" width="13.07" height="1.87"/>
        <rect class="cls-6" x="33.46" y="57.53" width="13.07" height="1.87"/>
        <rect class="cls-6" x="33.46" y="60.82" width="13.07" height="1.87"/>
      </g>
    </g>
  </g>
</svg>