<?xml version="1.0" encoding="UTF-8"?>
<svg id="Layer_2" data-name="Layer 2" xmlns="http://www.w3.org/2000/svg" viewBox="0 0 80 80">
  <defs>
    <style>
      .cls-1 {
        fill: #afafae;
      }

      .cls-2 {
        fill: #fff;
      }

      .cls-3 {
        fill: #c8202f;
      }
    </style>
  </defs>
  <g id="Layer_1-2" data-name="Layer 1">
    <g id="kaffetrakter">
      <g>
        <rect class="cls-2" width="80" height="80" rx="8" ry="8"/>
        <path class="cls-1" d="M51.1,46.57c-.37-2.53-1.57-5.77-1.62-5.92-.08-.22-.29-.37-.53-.37h-4.18v-2.05h3.13c.12,0,.24-.04.34-.11.11-.08,2.81-2.1,3.79-5.15,1.02-3.17,1.38-7.62,1.4-7.81.01-.16-.04-.31-.15-.43-.11-.12-.26-.18-.42-.18h-24.81l4.68-2.76h14.02l5.05,1.87.39-1.06-5.14-1.91c-.06-.02-.13-.04-.2-.04h-14.28c-.1,0-.2.03-.29.08l-6.6,3.89c-.22.13-.33.39-.26.64.07.25.29.42.55.42h26.26c-.14,1.33-.52,4.57-1.29,6.94-.75,2.33-2.7,4.04-3.24,4.48h-6.37c-.5-.53-2.1-2.34-2.86-4.6v-5.38h-1.13v27.92c0,.31.25.57.57.57h13.71v3.73h-25.11l1.87-16.01s0-.08,0-.12l-1.54-16.42-1.13.11,1.53,16.36-1.93,16.58c-.02.16.03.32.14.44.11.12.26.19.42.19h26.32c.31,0,.57-.25.57-.57v-4.87c0-.31-.25-.57-.57-.57h-1.41c.51-.42.84-1.03.89-1.72h1.08c2.46,0,4.46-2,4.46-4.46v-2.66c0-2.46-2-4.46-4.46-4.46h-.34l2.65-1.86-.65-.93-4.12,2.89c-.2.14-.29.4-.21.63.07.24.29.4.54.4h2.14c1.83,0,3.33,1.49,3.33,3.33v2.66c0,1.83-1.49,3.33-3.33,3.33h-1.13l-.52-5.05ZM48.54,41.41c.31.9,1.1,3.25,1.41,5.16h-5.19v-5.16h3.78ZM38.47,54.47v-19.29c1.01,1.71,2.16,2.83,2.23,2.89.11.1.25.16.39.16h2.54v2.05h-4.68v1.13h4.68v5.16h-4.68v7.9h-.48Z"/>
        <rect class="cls-1" x="29.11" y="29.21" width="5.43" height="1.13"/>
        <rect class="cls-1" x="29.84" y="31.78" width="4.66" height="1.13"/>
        <rect class="cls-1" x="30.73" y="34.34" width="3.77" height="1.13"/>
        <path class="cls-3" d="M29.75,55.61c0,.31.25.57.57.57h4.18c.31,0,.57-.25.57-.57v-6.85c0-.31-.25-.57-.57-.57h-4.18c-.31,0-.57.25-.57.57v6.85ZM33.93,49.32v2.34h-3.05v-2.34h3.05Z"/>
      </g>
    </g>
  </g>
</svg>