<?xml version="1.0" encoding="UTF-8"?>
<svg id="Layer_2" data-name="Layer 2" xmlns="http://www.w3.org/2000/svg" viewBox="0 0 80 80">
  <defs>
    <style>
      .cls-1 {
        fill: #afafae;
      }

      .cls-2 {
        fill: #fff;
      }

      .cls-3 {
        fill: #017c51;
      }

      .cls-4 {
        fill: #c8202f;
      }
    </style>
  </defs>
  <g id="Layer_1-2" data-name="Layer 1">
    <g id="oppvaskmaskin">
      <rect class="cls-2" width="80" height="80" rx="8" ry="8"/>
      <path class="cls-4" d="M38.77,31.51l1.16-.98c-1.4-1.16-3.2-1.85-5.16-1.85-4.01,0-7.34,2.92-8,6.75l1.51.04c.61-3.02,3.29-5.3,6.49-5.3,1.5,0,2.88.5,3.99,1.34"/>
      <path class="cls-4" d="M30.84,35.46c.55-1.64,2.11-2.83,3.94-2.83,1,0,1.92.36,2.64.95l.73-1.32c-.94-.7-2.11-1.12-3.37-1.12-2.66,0-4.89,1.84-5.49,4.32h1.55Z"/>
      <path class="cls-4" d="M51.11,35.75c-.5-3.16-3.24-5.59-6.54-5.59s-5.87,2.27-6.48,5.29l-1.51-.03c.65-3.82,3.99-6.75,8-6.75s7.54,3.1,8.05,7.09h-1.51Z"/>
      <path class="cls-4" d="M48.51,35.46c-.55-1.64-2.11-2.83-3.94-2.83s-3.38,1.19-3.94,2.83h-1.55c.6-2.48,2.83-4.32,5.49-4.32s5.07,1.99,5.55,4.62l-1.61-.3Z"/>
      <path class="cls-1" d="M21.4,35.46v-18.99h36.59v18.95l-1.86.04v-17.13H23.26v17.13h-1.86Z"/>
      <rect class="cls-1" x="23.23" y="26.47" width="33.55" height="1.86"/>
      <circle class="cls-1" cx="41.93" cy="20.8" r="1.38"/>
      <circle class="cls-1" cx="41.93" cy="24" r="1.38"/>
      <path class="cls-1" d="M55.01,25.51h-9.65v-6.31h9.65v6.31ZM47.22,23.65h5.93v-2.58h-5.93v2.58Z"/>
      <path class="cls-1" d="M57.42,55.97H21.49l-3.58-15.97h43.56l-4.05,15.97ZM23,54.1h32.95l3.41-14.1H20l3,14.1Z"/>
      <path class="cls-1" d="M61.47,40H17.91v-5.36h43.56v5.36ZM19.78,38.14h39.83v-1.63H19.78v1.63Z"/>
      <rect class="cls-3" x="35.48" y="41.2" width="8.55" height=".97"/>
      <rect class="cls-1" x="35.48" y="40.93" width="8.55" height="1.49"/>
      <polyline class="cls-1" points="23.26 55.17 23.26 58.19 56.12 58.19 56.12 54.83 57.99 51.63 57.99 60.06 21.4 60.06 21.4 54.63 23.26 55.17"/>
    </g>
  </g>
</svg>