<?xml version="1.0" encoding="UTF-8"?>
<svg id="Layer_2" data-name="Layer 2" xmlns="http://www.w3.org/2000/svg" viewBox="0 0 80 80">
  <defs>
    <style>
      .cls-1 {
        fill: #afafae;
      }

      .cls-2 {
        fill: #fff;
      }

      .cls-3 {
        fill: #c8202f;
      }
    </style>
  </defs>
  <g id="Layer_1-2" data-name="Layer 1">
    <g id="elbil">
      <rect class="cls-2" width="80" height="80" rx="8" ry="8"/>
      <path class="cls-3" d="M43,39.24h-4.38l2.45-5.77-1.43-.62-2.92,6.83c-.09.25-.06.53.06.75.16.22.37.34.65.34h4.38l-2.45,5.77,1.43.62,2.92-6.83c.09-.25.06-.53-.06-.75-.16-.22-.37-.34-.65-.34Z"/>
      <path class="cls-1" d="M34.87,42.87h-5.37c-.4,0-.75.34-.75.75v3.76c0,.4.34.75.75.75h5.37c.4,0,.75-.34.75-.75v-3.76c0-.4-.34-.75-.75-.75ZM34.16,46.63h-3.91v-2.27h3.91v2.27Z"/>
      <path class="cls-1" d="M54.18,55.01v-12.76h1.96c.4,0,.75-.34.75-.75v-4.19c0-.4-.34-.75-.75-.75l-.12-.06h-2.02v-10.59c0-2.86-2.33-5.22-5.22-5.22h-12.45c-.37-2.64-2.64-4.69-5.4-4.69h-2.27c-.43,0-.78.34-.78.78v1.8h-4.38v1.55h4.38v2.67h-4.38v1.55h4.38v1.8c0,.43.34.78.78.78h2.27c2.73,0,5-2.05,5.4-4.69h12.45c2.02,0,3.66,1.65,3.66,3.66v10.59l-2.48-5.34c-.53-1.15-1.71-1.89-2.95-1.89h-14.06c-1.24,0-2.36.68-2.92,1.83l-2.7,5.53h-3.17c-.4,0-.75.34-.75.75v4.66c0,.4.34.75.75.75h1.02v12.2c0,.4.34.75.75.75h5.46c.4,0,.71-.31.75-.68l.19-3.14h15.12v3.1c0,.4.34.75.75.75h5.25c.4,0,.75-.34.75-.75ZM30.96,25.42h-1.49v-7.79h1.49c2.14,0,3.9,1.73,3.91,3.9,0,2.14-1.74,3.9-3.91,3.9ZM52.6,41.44v12.76h-3.76v-3.1c0-.4-.34-.75-.75-.75h-16.55c-.4,0-.71.31-.75.68l-.19,3.17h-4.04v-12.2c0-.4-.34-.75-.75-.75h-1.02v-3.17h2.89c.28,0,.53-.16.65-.4l2.92-5.93c.31-.62.93-.99,1.61-.99h14.06c.68,0,1.33.4,1.61,1.02l2.7,5.77c.12.25.37.43.68.43h3.35v2.7h-1.96c-.4,0-.75.34-.75.75Z"/>
      <path class="cls-1" d="M50.08,43.49h-5.15c-.4,0-.75.34-.75.75v3.14c0,.4.34.75.75.75h5.15c.4,0,.75-.34.75-.75v-3.14c0-.4-.34-.75-.75-.75ZM49.34,46.63h-3.69v-1.68h3.69v1.68Z"/>
    </g>
  </g>
</svg>