<?xml version="1.0" encoding="UTF-8"?>
<svg id="Layer_2" data-name="Layer 2" xmlns="http://www.w3.org/2000/svg" viewBox="0 0 80 80">
  <defs>
    <style>
      .cls-1 {
        fill: #afafae;
      }

      .cls-2 {
        fill: #fff;
      }

      .cls-3 {
        fill: #c8202f;
      }
    </style>
  </defs>
  <g id="Layer_1-2" data-name="Layer 1">
    <g id="oppvarming">
      <rect class="cls-2" width="80" height="80" rx="8" ry="8"/>
      <path class="cls-3" d="M40,50.21c1.46,0,2.64-1.18,2.64-2.64,0-1.11-.69-2.06-1.65-2.45v-14.85h-1.97v14.85c-.97.39-1.66,1.34-1.66,2.45,0,1.46,1.18,2.64,2.64,2.64ZM40,48.24c-.37,0-.67-.3-.67-.67s.3-.67.67-.67.67.3.67.67-.3.67-.67.67Z"/>
      <path class="cls-1" d="M39.96,54.3c3.72,0,6.74-3.02,6.74-6.74,0-3.34-1.12-4.31-2.48-5.25v-11.07h.08v-.99c0-2.37-1.93-4.3-4.3-4.3s-4.3,1.89-4.3,4.3v12.08c-1.56,1.26-2.48,3.18-2.48,5.22,0,3.72,3.02,6.74,6.74,6.74ZM37.25,43.65l.43-.29v-13.09c0-1.3,1.02-2.33,2.33-2.33,1.07,0,1.98.73,2.25,1.72v13.69l.59.4c1.3.88,1.89,1.29,1.89,3.8s-2.14,4.77-4.77,4.77-4.77-2.14-4.77-4.77c0-1.57.77-3.04,2.05-3.92Z"/>
      <path class="cls-1" d="M27.3,27.42c6.48-6.48,16.72-6.96,23.76-1.45h-4.44v1.97h7.57v-7.57h-1.97v4c-7.81-6.07-19.14-5.52-26.31,1.65-3.77,3.77-5.84,8.77-5.84,14.09,0,4.41,1.43,8.61,4.14,12.15l1.56-1.2c-2.44-3.19-3.74-6.97-3.74-10.95,0-4.79,1.87-9.3,5.27-12.7Z"/>
      <path class="cls-1" d="M54.27,29.21c2.44,3.19,3.74,6.97,3.74,10.95,0,4.79-1.87,9.3-5.27,12.7-3.4,3.4-7.91,5.27-12.7,5.27-4.06,0-7.92-1.35-11.07-3.82h4.45v-1.97h-7.57v7.61h1.97v-4.03c3.48,2.72,7.74,4.19,12.22,4.19,5.32,0,10.33-2.08,14.09-5.85,3.77-3.77,5.84-8.77,5.84-14.09,0-4.41-1.43-8.61-4.14-12.15l-1.56,1.2Z"/>
      <rect class="cls-1" x="30.46" y="40" width="3.78" height="1.97"/>
      <rect class="cls-1" x="30.46" y="36.69" width="3.78" height="1.97"/>
      <rect class="cls-1" x="30.46" y="33.38" width="3.78" height="1.97"/>
      <rect class="cls-1" x="30.46" y="30.11" width="3.78" height="1.97"/>
    </g>
  </g>
</svg>