<?xml version="1.0" encoding="UTF-8"?>
<svg id="Layer_2" data-name="Layer 2" xmlns="http://www.w3.org/2000/svg" viewBox="0 0 80 80">
  <defs>
    <style>
      .cls-1 {
        fill: #afafae;
      }

      .cls-2 {
        fill: #fff;
      }

      .cls-3 {
        fill: #c8202f;
      }
    </style>
  </defs>
  <g id="Layer_1-2" data-name="Layer 1">
    <g id="stekeovn-plate">
      <rect class="cls-2" width="80" height="80" rx="8" ry="8"/>
      <path class="cls-1" d="M57.94,58.54H22.17V22.77h35.77v35.77ZM23.65,57.07h32.82V24.25H23.65v32.82Z"/>
      <path class="cls-1" d="M54.11,54.74h-28.11v-18.73h28.11v18.73ZM27.48,53.27h25.16v-15.78h-25.16v15.78Z"/>
      <path class="cls-1" d="M40.35,31.19c-1.57,0-2.85-1.28-2.85-2.85s1.28-2.85,2.85-2.85,2.84,1.28,2.84,2.85-1.28,2.85-2.84,2.85ZM40.35,26.97c-.76,0-1.37.62-1.37,1.37s.62,1.37,1.37,1.37,1.37-.62,1.37-1.37-.62-1.37-1.37-1.37Z"/>
      <path class="cls-1" d="M34.2,31.19c-1.57,0-2.84-1.28-2.84-2.85s1.28-2.85,2.84-2.85,2.85,1.28,2.85,2.85-1.28,2.85-2.85,2.85ZM34.2,26.97c-.76,0-1.37.62-1.37,1.37s.62,1.37,1.37,1.37,1.37-.62,1.37-1.37-.62-1.37-1.37-1.37Z"/>
      <path class="cls-1" d="M46.27,31.19c-1.57,0-2.85-1.28-2.85-2.85s1.28-2.85,2.85-2.85,2.85,1.28,2.85,2.85-1.28,2.85-2.85,2.85ZM46.27,26.97c-.76,0-1.37.62-1.37,1.37s.62,1.37,1.37,1.37,1.37-.62,1.37-1.37-.62-1.37-1.37-1.37Z"/>
      <g>
        <path class="cls-3" d="M42.99,45.01c-.71-.34-1.25-1.09-1.33-1.86-.08-.75.24-1.45.9-1.96.45-.35.6-.64.59-.77,0-.12-.16-.34-.58-.58l.75-1.27c.82.48,1.26,1.07,1.3,1.76.03.49-.14,1.24-1.16,2.03-.25.19-.36.4-.33.63.03.27.24.57.5.69l-.63,1.33Z"/>
        <path class="cls-3" d="M39.95,45.01c-.71-.34-1.25-1.09-1.33-1.86-.08-.75.24-1.45.9-1.96.45-.35.6-.64.59-.77,0-.12-.16-.34-.58-.58l.75-1.27c.82.48,1.26,1.07,1.3,1.76.03.49-.14,1.24-1.16,2.03-.25.19-.36.4-.33.63.03.27.24.57.5.69l-.63,1.33Z"/>
        <path class="cls-3" d="M36.89,45.01c-.71-.34-1.25-1.09-1.33-1.86-.08-.75.24-1.45.9-1.96.45-.35.6-.64.59-.77,0-.12-.16-.34-.58-.58l.75-1.27c.82.48,1.26,1.07,1.3,1.76.03.49-.15,1.24-1.16,2.03-.25.19-.36.4-.33.63.03.27.24.57.5.69l-.63,1.33Z"/>
      </g>
      <rect class="cls-1" x="22.91" y="32.15" width="34.29" height="1.47"/>
      <path class="cls-1" d="M40.06,54.5c-3.28,0-5.95-2.67-5.95-5.95,0-.41.33-.74.74-.74h10.42c.41,0,.74.33.74.74,0,3.28-2.67,5.95-5.95,5.95ZM35.64,49.29c.35,2.12,2.2,3.74,4.41,3.74s4.06-1.62,4.41-3.74h-8.83Z"/>
      <path class="cls-1" d="M40.51,49.21h-4.73c-.41,0-.74-.33-.74-.74,0-1.71,1.39-3.1,3.1-3.1s3.1,1.39,3.1,3.1c0,.41-.33.74-.74.74ZM36.7,47.74h2.9c-.27-.53-.82-.89-1.45-.89s-1.18.36-1.45.89Z"/>
      <path class="cls-1" d="M42.61,45.67c-1.3,0-2.36,1.06-2.36,2.36h4.73c0-1.3-1.06-2.36-2.36-2.36Z"/>
      <rect class="cls-1" x="27.69" y="42" width="7.58" height="1.47" transform="translate(-20.86 33.92) rotate(-44.06)"/>
      <rect class="cls-1" x="28.22" y="39.78" width="3.79" height="1.47" transform="translate(-19.7 32.34) rotate(-44.06)"/>
    </g>
  </g>
</svg>