<?xml version="1.0" encoding="UTF-8"?>
<svg id="Layer_2" data-name="Layer 2" xmlns="http://www.w3.org/2000/svg" viewBox="0 0 80 80">
  <defs>
    <style>
      .cls-1 {
        fill: #afafae;
      }

      .cls-2 {
        fill: #fff;
      }

      .cls-3 {
        fill: #c8202f;
      }
    </style>
  </defs>
  <g id="Layer_1-2" data-name="Layer 1">
    <g id="vaskemaskin">
      <rect class="cls-2" width="80" height="80" rx="8" ry="8"/>
      <path class="cls-1" d="M24.51,20.02v38.33h30.28V20.02h-30.28ZM52.94,21.88v7.64h-26.57v-7.64h26.57ZM26.37,56.5v-25.12h26.57v25.12h-26.57Z"/>
      <path class="cls-3" d="M39.65,31.94c-6.22,0-11.27,5.06-11.27,11.27s5.06,11.27,11.27,11.27,11.27-5.06,11.27-11.27-5.06-11.27-11.27-11.27ZM39.65,52.63c-5.19,0-9.42-4.22-9.42-9.42s4.22-9.42,9.42-9.42,9.42,4.22,9.42,9.42-4.22,9.42-9.42,9.42Z"/>
      <path class="cls-1" d="M47.44,28.45c1.58,0,2.86-1.28,2.86-2.86s-1.28-2.86-2.86-2.86-2.86,1.28-2.86,2.86,1.28,2.86,2.86,2.86ZM47.44,24.58c.56,0,1.01.45,1.01,1.01s-.45,1.01-1.01,1.01-1.01-.45-1.01-1.01.45-1.01,1.01-1.01Z"/>
      <path class="cls-1" d="M37.89,22.87h-10.26v5.43h10.26v-5.43ZM36.04,26.45h-6.55v-1.72h6.55v1.72Z"/>
    </g>
  </g>
</svg>